<svg width="37" height="36" viewBox="0 0 37 36" fill="none" xmlns="http://www.w3.org/2000/svg">
<path d="M31.479 31H5.479C5.21379 31 4.95943 31.1054 4.7719 31.2929C4.58436 31.4804 4.479 31.7348 4.479 32C4.479 32.2652 4.58436 32.5196 4.7719 32.7071C4.95943 32.8946 5.21379 33 5.479 33H31.479C31.7442 33 31.9986 32.8946 32.1861 32.7071C32.3736 32.5196 32.479 32.2652 32.479 32C32.479 31.7348 32.3736 31.4804 32.1861 31.2929C31.9986 31.1054 31.7442 31 31.479 31Z" fill="white"/>
<path d="M18.4791 29.48L29.0891 18.87C29.2529 18.6787 29.3385 18.4326 29.3288 18.1809C29.3191 17.9293 29.2147 17.6905 29.0366 17.5124C28.8586 17.3343 28.6198 17.23 28.3681 17.2203C28.1165 17.2106 27.8704 17.2962 27.6791 17.46L19.4791 25.65V5C19.4791 4.73478 19.3737 4.48043 19.1862 4.29289C18.9987 4.10536 18.7443 4 18.4791 4C18.2139 4 17.9595 4.10536 17.772 4.29289C17.5844 4.48043 17.4791 4.73478 17.4791 5V25.65L9.28909 17.46C9.19944 17.3553 9.08912 17.2703 8.96506 17.2103C8.84099 17.1503 8.70586 17.1165 8.56814 17.1112C8.43042 17.1059 8.29309 17.1291 8.16476 17.1794C8.03644 17.2296 7.91989 17.3059 7.82243 17.4033C7.72498 17.5008 7.64872 17.6174 7.59845 17.7457C7.54817 17.874 7.52497 18.0113 7.53029 18.1491C7.53561 18.2868 7.56934 18.4219 7.62936 18.546C7.68938 18.67 7.7744 18.7804 7.87908 18.87L18.4791 29.48Z" fill="white"/>
</svg>
